<svg width="256" height="256" viewBox="0 0 256 256" fill="none" xmlns="http://www.w3.org/2000/svg">
<path d="M39.7519 162.428C43.7151 162.429 47.4154 163.151 50.9165 164.656C54.546 166.159 57.7154 168.178 60.3561 170.79C62.9996 173.407 65.0642 176.559 66.5853 180.157C68.1024 183.621 68.8361 187.282 68.8373 191.202C68.8373 195.127 68.1053 198.936 66.5853 202.534C65.0643 206.001 62.9991 208.998 60.3561 211.615C57.7133 214.231 54.5506 216.267 50.9165 217.772C47.4154 219.276 43.7151 219.999 39.7519 220C35.7894 220 31.9563 219.274 28.3238 217.772C24.821 216.267 21.7674 214.231 19.1238 211.615C16.4846 209 14.4372 205.997 12.9186 202.534C11.3985 198.936 10.6665 195.127 10.6665 191.202C10.6677 187.28 11.4002 183.622 12.9186 180.157C14.4387 176.559 16.4802 173.407 19.1238 170.79C21.7667 168.174 24.8222 166.16 28.3238 164.656C31.9568 163.152 35.7889 162.428 39.7519 162.428ZM152.739 36C165.618 36.0015 177.633 38.5456 188.845 43.5469C200.189 48.6147 210.067 55.3717 218.409 63.8156C226.953 72.1319 233.638 81.8773 238.51 93.1167C243.381 104.16 245.794 115.788 245.794 128C245.794 140.212 243.381 151.646 238.51 162.883C233.838 173.928 227.217 183.738 218.673 192.184C210.329 200.629 200.455 207.385 189.108 212.453C177.898 217.52 165.818 219.999 152.739 220H79.978V36H152.739ZM129.093 179.534H140.377C148.921 179.534 156.534 178.228 163.209 175.629C169.884 173.031 175.489 169.444 180.028 164.896C184.697 160.35 188.233 154.964 190.57 148.796C193.105 142.43 194.306 135.541 194.307 128.072C194.307 120.6 193.039 113.906 190.57 107.54C188.032 101.172 184.503 95.6999 179.764 91.1521C175.226 86.607 169.617 83.0404 162.946 80.4427C156.271 77.8432 148.72 76.5375 140.377 76.5375H129.093V179.534ZM39.7519 81.0656C43.7151 81.0663 47.4154 81.7735 50.9165 83.2458C54.549 84.7172 57.714 86.7018 60.3561 89.2594C62.9996 91.82 65.0642 94.8919 66.5853 98.4115C68.1024 101.8 68.8362 105.382 68.8373 109.217C68.8373 113.057 68.1053 116.789 66.5853 120.309C65.0645 123.699 62.9978 126.639 60.3561 129.198C57.7142 131.754 54.5483 133.741 50.9165 135.211C47.4154 136.683 43.7151 137.391 39.7519 137.392C35.7899 137.392 31.956 136.681 28.3238 135.211C24.821 133.739 21.7674 131.758 19.1238 129.198C16.4831 126.64 14.4382 123.697 12.9186 120.309C11.3985 116.789 10.6665 113.057 10.6665 109.217C10.6677 105.38 11.4001 101.801 12.9186 98.4115C14.4381 94.8935 16.4819 91.8194 19.1238 89.2594C21.7674 86.6997 24.821 84.7178 28.3238 83.2458C31.9565 81.7748 35.7892 81.0656 39.7519 81.0656Z" fill="#0083F0"/>
</svg>
