<svg width="2400" height="360" viewBox="0 0 2400 360" fill="none" xmlns="http://www.w3.org/2000/svg">
<path d="M139.097 13.0116C172.19 13.0117 197.169 20.8487 214.413 36.1533C231.53 51.4579 240.153 73.6185 240.153 102.391C240.153 119.9 236.856 134.47 230.135 146.101C223.796 157.488 213.907 167.162 200.593 175.12C213.906 177.569 225.191 181.364 234.447 186.628C243.957 191.526 251.565 197.648 257.27 204.994C263.357 212.341 267.542 220.667 270.078 229.849C272.614 239.032 273.88 248.828 273.88 259.235C273.88 275.518 270.838 289.843 264.879 302.453C259.173 315.064 250.931 325.595 240.153 334.166C229.629 342.737 216.823 349.225 201.607 353.51C186.392 357.796 169.274 360 150.127 360H0V13.0116H139.097ZM907.104 252.254C914.711 252.254 921.812 253.602 928.532 256.418C935.506 259.234 941.594 263.029 946.666 267.926C951.738 272.824 955.668 278.702 958.584 285.436C961.5 291.925 962.896 298.782 962.896 306.128C962.896 313.474 961.5 320.575 958.584 327.308C955.668 333.797 951.738 339.43 946.666 344.327C941.594 349.225 935.506 353.022 928.532 355.838C921.812 358.654 914.711 360 907.104 360C899.496 359.999 892.141 358.654 885.168 355.838C878.448 353.022 872.615 349.225 867.544 344.327C862.472 339.43 858.542 333.797 855.626 327.308C852.709 320.575 851.314 313.474 851.314 306.128C851.314 298.782 852.709 291.926 855.626 285.436C858.542 278.702 862.472 272.824 867.544 267.926C872.615 263.029 878.448 259.234 885.168 256.418C892.141 253.602 899.496 252.254 907.104 252.254ZM409.173 359.877H315.85V89.5357L315.723 89.4129H263.357V13.0116H409.173V359.877ZM716.655 225.074V13.0116H809.598V359.877H716.655L544.212 147.817V359.877H450.889V13.0116H544.212L716.655 225.074ZM1121.9 13.0116C1146.37 13.0117 1169.19 17.7866 1190.49 27.2138C1212.05 36.764 1230.82 49.4987 1246.67 65.4156C1262.9 81.0874 1275.58 99.4528 1284.83 120.634C1294.09 141.448 1298.65 163.365 1298.65 186.383C1298.65 209.401 1294.09 230.952 1284.83 252.133C1275.96 272.947 1263.4 291.435 1247.17 307.352C1231.32 323.269 1212.56 336.001 1191 345.552C1169.7 355.101 1146.75 359.756 1121.9 359.756H983.69V13.0116H1121.9ZM90.6601 290.087H111.201C134.658 290.087 151.523 287.15 161.667 281.396C171.81 275.519 176.882 266.213 176.882 253.357C176.882 240.502 171.81 231.074 161.667 225.319C151.523 219.442 134.658 216.626 111.201 216.626H90.6601V290.087ZM1077.01 283.478H1098.44C1114.67 283.477 1129.13 281.028 1141.81 276.131C1154.49 271.233 1165.14 264.499 1173.76 255.929C1182.63 247.358 1189.35 237.194 1193.79 225.563C1198.61 213.564 1200.89 200.586 1200.89 186.506C1200.89 172.426 1198.48 159.815 1193.79 147.817C1188.97 135.818 1182.25 125.532 1173.25 116.962C1164.63 108.391 1153.98 101.657 1141.3 96.7597C1128.62 91.8623 1114.29 89.4129 1098.44 89.4129H1077.01V283.478ZM907.104 97.2489C914.711 97.2489 921.812 98.5967 928.532 101.413C935.506 104.229 941.594 108.023 946.666 112.921C951.738 117.818 955.668 123.695 958.584 130.429C961.5 136.918 962.895 143.775 962.896 151.121C962.896 158.467 961.5 165.569 958.584 172.303C955.668 178.792 951.738 184.425 946.666 189.322C941.594 194.22 935.506 198.015 928.532 200.831C921.812 203.647 914.711 204.994 907.104 204.994C899.496 204.994 892.141 203.647 885.168 200.831C878.448 198.015 872.615 194.22 867.544 189.322C862.472 184.425 858.542 178.792 855.626 172.303C852.709 165.569 851.314 158.467 851.314 151.121C851.314 143.775 852.709 136.918 855.626 130.429C858.542 123.695 862.472 117.818 867.544 112.921C872.615 108.024 878.448 104.229 885.168 101.413C892.141 98.5966 899.496 97.249 907.104 97.2489ZM90.6601 149.284H107.777C136.94 149.284 151.649 138.143 151.649 115.738C151.649 93.3316 137.067 82.1889 107.777 82.1889H90.6601V149.284Z" fill="#0083F0"/>
<path d="M1766.16 99.759C1788.6 99.759 1808.96 105.221 1827.24 116.145C1845.51 126.747 1859.78 142.009 1870.04 161.928C1880.62 181.526 1885.91 204.016 1885.91 229.397C1885.91 232.609 1885.59 236.787 1884.95 241.928H1688.25C1690.17 266.346 1699.15 285.945 1715.18 300.724C1731.21 315.503 1751.57 322.891 1776.26 322.891C1805.44 322.891 1828.84 312.449 1846.48 291.566L1870.04 318.554C1859.14 332.048 1845.51 342.33 1829.16 349.398C1813.13 356.466 1795.18 360 1775.3 360C1749.97 360 1727.36 354.538 1707.49 343.614C1687.61 332.369 1672.22 316.948 1661.32 297.35C1650.42 277.43 1644.96 254.94 1644.96 229.88C1644.96 205.141 1650.25 182.971 1660.83 163.373C1671.41 143.453 1685.84 127.87 1704.12 116.626C1722.71 105.381 1743.4 99.759 1766.16 99.759ZM2033.01 99.759C2055.14 99.759 2074.69 104.579 2091.69 114.218C2109 123.535 2122.47 136.868 2132.09 154.217L2098.42 174.94C2091.05 162.732 2081.59 153.574 2070.05 147.47C2058.82 141.365 2046.48 138.312 2033.01 138.312C2017.3 138.312 2003.04 142.169 1990.21 149.88C1977.39 157.269 1967.29 167.871 1959.91 181.686C1952.86 195.501 1949.33 211.566 1949.33 229.88C1949.33 248.193 1952.86 264.417 1959.91 278.554C1967.29 292.369 1977.39 303.132 1990.21 310.843C2003.04 318.232 2017.3 321.927 2033.01 321.927C2046.8 321.927 2059.31 319.036 2070.53 313.253C2081.75 307.148 2091.05 297.831 2098.42 285.301L2132.09 306.025C2122.47 323.374 2109 336.707 2091.69 346.024C2074.69 355.342 2055.14 360 2033.01 360C2008.65 360 1986.68 354.538 1967.12 343.614C1947.89 332.369 1932.82 316.948 1921.92 297.35C1911.02 277.43 1905.57 254.94 1905.57 229.88C1905.57 204.819 1911.02 182.49 1921.92 162.892C1932.82 142.972 1947.89 127.549 1967.12 116.626C1986.68 105.381 2008.65 99.7591 2033.01 99.759ZM1673.06 59.2764H1563.41V357.59H1519.16V59.2764H1409.03V20.2403H1673.06V59.2764ZM2213.88 146.023C2222.54 131.245 2234.4 119.839 2249.47 111.807C2264.54 103.775 2281.85 99.7591 2301.41 99.759C2331.55 99.759 2355.43 109.237 2373.07 128.193C2391.02 146.828 2400 173.977 2400 209.639V357.59H2356.72V215.904C2356.72 190.844 2350.95 171.887 2339.4 159.035C2328.18 146.184 2311.99 139.759 2290.83 139.759C2267.1 139.759 2248.35 147.309 2234.56 162.409C2220.77 177.51 2213.88 198.716 2213.88 226.025V357.59H2170.59V0H2213.88V146.023ZM1766.64 135.421C1745.16 135.421 1727.2 142.65 1712.78 157.108C1698.35 171.566 1690.17 190.361 1688.25 213.494H1845.03C1842.79 190.361 1834.45 171.566 1820.02 157.108C1805.6 142.651 1787.8 135.422 1766.64 135.421Z" fill="currentColor"/>
</svg>
