<svg width="20" height="20" viewBox="0 0 20 20" fill="none" xmlns="http://www.w3.org/2000/svg">
<path d="M3.10555 12.6897C3.41517 12.6898 3.70426 12.7462 3.97778 12.8638C4.26134 12.9812 4.50895 13.1389 4.71525 13.3429C4.92177 13.5475 5.08307 13.7937 5.2019 14.0748C5.32043 14.3454 5.37775 14.6314 5.37785 14.9377C5.37785 15.2443 5.32066 15.5419 5.2019 15.823C5.08308 16.0939 4.92174 16.328 4.71525 16.5324C4.50878 16.7368 4.2617 16.8959 3.97778 17.0134C3.70426 17.1309 3.41517 17.1874 3.10555 17.1875C2.79598 17.1875 2.49652 17.1308 2.21273 17.0134C1.93908 16.8959 1.70051 16.7368 1.49398 16.5324C1.28779 16.3282 1.12784 16.0935 1.0092 15.823C0.890443 15.5419 0.833252 15.2443 0.833252 14.9377C0.833348 14.6312 0.890572 14.3455 1.0092 14.0748C1.12796 13.7937 1.28745 13.5475 1.49398 13.3429C1.70046 13.1386 1.93917 12.9813 2.21273 12.8638C2.49655 12.7463 2.79594 12.6897 3.10555 12.6897ZM11.9327 2.8125C12.9388 2.81262 13.8775 3.01138 14.7534 3.4021C15.6397 3.79802 16.4114 4.32592 17.0632 4.9856C17.7306 5.63531 18.2529 6.39666 18.6335 7.27474C19.0141 8.13748 19.2026 9.04594 19.2026 10C19.2026 10.9541 19.0141 11.8474 18.6335 12.7253C18.2685 13.5881 17.7513 14.3545 17.0837 15.0144C16.4319 15.6741 15.6605 16.202 14.774 16.5979C13.8982 16.9937 12.9545 17.1874 11.9327 17.1875H6.24821V2.8125H11.9327ZM10.0853 14.0261H10.9669C11.6343 14.0261 12.2292 13.924 12.7507 13.721C13.2721 13.518 13.71 13.2378 14.0646 12.8825C14.4294 12.5274 14.7057 12.1065 14.8882 11.6247C15.0863 11.1274 15.1801 10.5891 15.1802 10.0056C15.1802 9.4219 15.0811 8.89893 14.8882 8.40153C14.69 7.90407 14.4143 7.47656 14.044 7.12126C13.6895 6.76617 13.2513 6.48753 12.7301 6.28459C12.2086 6.0815 11.6187 5.97949 10.9669 5.97949H10.0853V14.0261ZM3.10555 6.33325C3.41517 6.33331 3.70426 6.38856 3.97778 6.50358C4.26157 6.61853 4.50884 6.77358 4.71525 6.97339C4.92177 7.17344 5.08307 7.41343 5.2019 7.6884C5.32043 7.95312 5.37776 8.23295 5.37785 8.53255C5.37785 8.83259 5.32066 9.12413 5.2019 9.39917C5.08309 9.66401 4.92164 9.89367 4.71525 10.0936C4.50885 10.2933 4.26152 10.4485 3.97778 10.5634C3.70426 10.6783 3.41517 10.7337 3.10555 10.7337C2.79601 10.7337 2.49649 10.6782 2.21273 10.5634C1.93908 10.4484 1.70051 10.2936 1.49398 10.0936C1.28768 9.89375 1.12792 9.66386 1.0092 9.39917C0.890443 9.12413 0.833252 8.83259 0.833252 8.53255C0.833343 8.23282 0.890567 7.95321 1.0092 7.6884C1.12791 7.41355 1.28758 7.17339 1.49398 6.97339C1.70051 6.77342 1.93908 6.61858 2.21273 6.50358C2.49654 6.38866 2.79596 6.33325 3.10555 6.33325Z" fill="white"/>
</svg>
